<?xml version="1.0" encoding="UTF-8"?>
<svg width="27px" height="24px" viewBox="0 0 27 24" version="1.1" xmlns="http://www.w3.org/2000/svg" xmlns:xlink="http://www.w3.org/1999/xlink">
    <!-- Generator: sketchtool 58 (101010) - https://sketch.com -->
    <title>8ABACA96-1C2D-42CF-A915-3DD164FB704B</title>
    <desc>Created with sketchtool.</desc>
    <g id="PHASE-2---Sprint-1" stroke="none" stroke-width="1" fill="none" fill-rule="evenodd">
        <g id="User-Error---Existing-User" transform="translate(-851.000000, -536.000000)">
            <g id="Form/Textbox" transform="translate(546.000000, 492.000000)">
                <g id="icon/Alert_Success-icon/Alert_Error" transform="translate(305.615894, 44.000000)">
                    <g id="icon_Alert_Error">
                        <path d="M7.38436477,23.6875805 L0.51518171,17.4391067 C0.185316401,17.1390485 -2.34337933e-15,16.7320823 -2.34337933e-15,16.3077359 L-2.34337933e-15,7.69226412 C-2.34337933e-15,7.26791772 0.185316401,6.86095146 0.51518171,6.56089326 L7.21263755,0.46862915 C7.54250285,0.168570944 7.98989622,0 8.45639623,0 L17.9280427,0 C18.3945567,0 18.8419624,0.16858109 19.1718301,0.468655282 L25.8689527,6.5608977 C26.1988004,6.8609538 26.3841057,7.26790884 26.3841057,7.69224246 L26.3841057,16.3077575 C26.3841057,16.7320912 26.1988004,17.1390462 25.8689527,17.4391023 L19.1718301,23.5313447 C18.8419624,23.8314189 18.3945567,24 17.9280427,24 L8.2135372,24 C7.90253719,24 7.60427497,23.8876194 7.38436477,23.6875805 Z" id="ðŸ–-icon-fill-color"></path>
                        <path d="M17.9280433,22.4000008 L24.6251662,16.3077581 L24.6251662,7.69224274 L17.9280433,1.60000005 L8.45639653,1.60000005 L1.75894043,7.6922644 L1.75894043,16.3077365 L8.45639653,22.4000008 L17.9280433,22.4000008 Z M7.38436477,23.6875805 L0.51518171,17.4391067 C0.185316401,17.1390485 -2.34337933e-15,16.7320823 -2.34337933e-15,16.3077359 L-2.34337933e-15,7.69226412 C-2.34337933e-15,7.26791772 0.185316401,6.86095146 0.51518171,6.56089326 L7.21263755,0.46862915 C7.54250285,0.168570944 7.98989622,0 8.45639623,0 L17.9280427,0 C18.3945567,0 18.8419624,0.16858109 19.1718301,0.468655282 L25.8689527,6.5608977 C26.1988004,6.8609538 26.3841057,7.26790884 26.3841057,7.69224246 L26.3841057,16.3077575 C26.3841057,16.7320912 26.1988004,17.1390462 25.8689527,17.4391023 L19.1718301,23.5313447 C18.8419624,23.8314189 18.3945567,24 17.9280427,24 L8.2135372,24 C7.90253719,24 7.60427497,23.8876194 7.38436477,23.6875805 Z" id="ðŸ–-icon-outline-color" fill="#E4292F" fill-rule="nonzero"></path>
                        <path d="M14.2390416,15.4795188 C14.2390416,15.620885 14.1991567,15.7429721 14.1193858,15.8457839 C14.0766764,15.9008293 14.0296799,15.9411389 13.9783959,15.9667128 C13.9338937,15.9889048 13.8861629,16.0000008 13.8352033,16.0000008 L12.5489034,16.0000008 C12.4392183,16.0000008 12.3444918,15.9485956 12.2647208,15.8457839 C12.1849499,15.7429721 12.145065,15.620885 12.145065,15.4795188 L11.7262698,5.85381554 C11.7262698,5.71244937 11.7661546,5.59036222 11.8459256,5.48755046 C11.9256964,5.3847387 12.020423,5.33333359 12.1301081,5.33333359 L14.2539985,5.33333359 C14.3636836,5.33333359 14.4584102,5.3847387 14.5381811,5.48755046 C14.617952,5.59036222 14.6578369,5.71244937 14.6578369,5.85381554 L14.2390416,15.4795188 Z M13.1920534,19.2000001 C12.5444294,19.2000001 12.0194264,18.7224372 12.0194264,18.1333335 C12.0194264,17.5442298 12.5444294,17.0666668 13.1920534,17.0666668 C13.8396774,17.0666668 14.3646803,17.5442298 14.3646803,18.1333335 C14.3646803,18.7224372 13.8396774,19.2000001 13.1920534,19.2000001 Z" id="ðŸ–-icon-!-color" fill="#E4292F" fill-rule="nonzero"></path>
                    </g>
                </g>
            </g>
        </g>
    </g>
</svg>