<svg viewBox="0 0 12 6" version="1.1" xmlns="http://www.w3.org/2000/svg" xmlns:xlink="http://www.w3.org/1999/xlink">
        <g  transform="translate(-863.000000, -659.000000)" fill-rule="nonzero">
            <g transform="translate(863.763783, 659.000000)">
                <g >
                    <path d="M10.5,0.66666667 C10.5,0.84722313 10.4350592,1.0034716 10.3051758,1.1354167 L5.7114258,5.8020833 C5.5815423,5.9340284 5.4277353,6 5.25,6 C5.0722647,6 4.9184577,5.9340284 4.7885742,5.8020833 L0.19482422,1.1354167 C0.06494076,1.0034716 0,0.84722313 0,0.66666667 C0,0.48611021 0.06494076,0.32986177 0.19482422,0.19791667 C0.32470768,0.06597156 0.47851474,0 0.65625,0 L9.84375,0 C10.0214853,0 10.1752923,0.06597156 10.3051758,0.19791667 C10.4350592,0.32986177 10.5,0.48611021 10.5,0.66666667 L10.5,0.66666667 Z"></path>
                </g>
            </g>
        </g>
   
</svg>