
<svg width="14px" height="14px" viewBox="0 0 14 14"  xmlns="http://www.w3.org/2000/svg" xmlns:xlink="http://www.w3.org/1999/xlink">
    <path fill="currentColor" d="M1.947768,0.61017464 L6.99703709,5.66774562 L12.0612017,0.6095807 C12.4175856,0.25361908 12.9950557,0.25396136 13.3510173,0.61034521 C13.3597667,0.61910495 13.3683368,0.62804193 13.3767222,0.63715062 L13.3767222,0.63715062 C13.7362267,1.02766026 13.7235648,1.63226878 13.3480264,2.00738496 L8.3518711,6.99792348 L13.3982381,12.0633361 C13.7569766,12.4234285 13.755879,13.006156 13.3957866,13.3648944 C13.3899117,13.3707472 13.383958,13.3765203 13.3779271,13.3822122 L13.3779271,13.3822122 C12.9948349,13.7437672 12.3937688,13.7354424 12.0208368,13.3634163 L6.99703709,8.35182019 L1.95574782,13.3902018 C1.58664714,13.7590896 0.98838928,13.758917 0.61950148,13.3898164 C0.61603837,13.3863513 0.61260227,13.3828593 0.60919347,13.3793407 L0.60919347,13.3793407 C0.23899098,12.9972182 0.24464366,12.3885173 0.62187882,12.0133359 L5.66206576,7.00058849 L0.61327815,1.95903913 C0.24172506,1.58801872 0.23989934,0.98647634 0.60919347,0.61320742 L0.60919347,0.61320742 C0.97571796,0.24273795 1.57316961,0.2395399 1.94363908,0.60606439 C1.94501961,0.60743022 1.94639593,0.60880031 1.947768,0.61017464 Z" ></path>
</svg>