<?xml version="1.0" encoding="utf-8"?>
<!-- Generator: Adobe Illustrator 24.1.0, SVG Export Plug-In . SVG Version: 6.00 Build 0)  -->
<svg version="1.1" id="Layer_1" xmlns="http://www.w3.org/2000/svg" xmlns:xlink="http://www.w3.org/1999/xlink" x="0px" y="0px"
	 viewBox="0 0 144 36" style="enable-background:new 0 0 144 36;" xml:space="preserve">
<style type="text/css">
	.st0{fill:#79BE43;}
</style>
<polygon id="XMLID_90_" class="st0" points="115.45,8.49 109.55,8.49 110.41,4.22 116.31,4.22 "/>
<g id="XMLID_1_">
	<path id="XMLID_2_" d="M133.19,9.81c-0.87,0-1.58,0.71-1.58,1.58c0,0.87,0.71,1.58,1.58,1.58c0.87,0,1.58-0.71,1.58-1.58
		C134.77,10.52,134.06,9.81,133.19,9.81 M133.19,13.2c-1,0-1.81-0.81-1.81-1.81c0-1,0.81-1.81,1.81-1.81c1,0,1.81,0.81,1.81,1.81
		C135,12.39,134.19,13.2,133.19,13.2"/>
</g>
<polygon id="XMLID_87_" points="28.89,4.22 23.08,16.04 23.02,16.04 22.75,4.22 13.6,4.22 9,26.2 15.23,26.2 18.16,11.05 
	18.22,11.05 18.99,26.2 23.85,26.2 30.83,11.05 30.89,11.05 27.61,26.2 33.7,26.2 38.23,4.22 "/>
<g id="XMLID_3_">
	<path id="XMLID_4_" d="M41.76,21.63c0,0.53,0.21,0.89,0.64,1.09c0.4,0.2,0.86,0.3,1.37,0.3c1.06,0,1.85-0.36,2.39-1.09
		c0.49-0.69,0.81-1.63,0.98-2.8c-0.51,0.25-1.04,0.42-1.58,0.5c-0.58,0.08-1.16,0.15-1.75,0.21c-0.53,0.02-0.99,0.18-1.4,0.47
		C41.97,20.61,41.76,21.06,41.76,21.63 M37.92,15.06c0.53-2.09,1.52-3.5,2.98-4.22c1.45-0.7,3.15-1.04,5.1-1.01
		c0.75,0,1.57,0.03,2.44,0.09c0.88,0.08,1.71,0.27,2.5,0.56c0.81,0.26,1.48,0.68,1.98,1.26c0.51,0.57,0.76,1.35,0.76,2.33
		c-0.04,1.46-0.36,3.42-0.96,5.88c-0.25,1.13-0.48,2.15-0.68,3.05c-0.21,0.88-0.32,1.48-0.32,1.79c0,0.57,0.09,1.04,0.26,1.41h-5.77
		c-0.16-0.49-0.24-1-0.22-1.53l-0.06-0.01c-0.57,0.63-1.31,1.1-2.22,1.41c-0.95,0.35-1.91,0.53-2.87,0.53
		c-1.35,0-2.5-0.34-3.47-1.02c-1-0.65-1.5-1.73-1.52-3.23c0.02-2.07,0.74-3.52,2.16-4.34c1.39-0.8,3.24-1.25,5.56-1.35
		c0.45-0.04,0.95-0.07,1.49-0.09c0.51-0.02,0.98-0.07,1.41-0.15c1-0.15,1.52-0.69,1.56-1.61c-0.02-0.55-0.22-0.93-0.61-1.13
		c-0.39-0.17-0.85-0.26-1.37-0.26c-1.25-0.02-2.06,0.53-2.42,1.64L37.92,15.06z"/>
	<path id="XMLID_5_" d="M62.87,14.25c-0.55,0-1.03,0.14-1.43,0.41c-0.42,0.29-0.74,0.67-0.98,1.15c-0.22,0.43-0.39,0.91-0.51,1.45
		c-0.12,0.53-0.17,1.04-0.17,1.54c0,0.72,0.17,1.32,0.53,1.79c0.34,0.51,0.84,0.77,1.5,0.77c0.71,0,1.29-0.21,1.73-0.62
		c0.42-0.34,0.74-0.77,0.98-1.3c0.4-1.14,0.59-2.04,0.57-2.68c0-0.26-0.01-0.54-0.03-0.83c-0.02-0.29-0.1-0.56-0.23-0.8
		c-0.15-0.25-0.36-0.46-0.66-0.62C63.84,14.33,63.41,14.25,62.87,14.25 M69.44,23.45c-0.19,1.1-0.43,2.16-0.71,3.17
		c-0.3,0.98-0.76,1.86-1.37,2.64c-0.62,0.78-1.48,1.38-2.59,1.82c-1.14,0.47-2.64,0.7-4.52,0.7c-0.48,0-1.1-0.05-1.87-0.17
		c-0.79-0.08-1.61-0.28-2.44-0.61c-0.79-0.32-1.46-0.85-1.99-1.59c-0.55-0.72-0.83-1.7-0.83-2.95h5.83c0,0.6,0.16,1.06,0.48,1.39
		c0.32,0.22,0.78,0.33,1.37,0.33c0.87-0.02,1.49-0.32,1.85-0.89c0.34-0.56,0.57-1.21,0.68-1.94l0.36-1.7h-0.06
		c-0.96,1.07-2.19,1.61-3.69,1.61c-3.95-0.09-5.97-2.16-6.05-6.22c0-2.39,0.65-4.5,1.94-6.34c1.25-1.86,3.09-2.82,5.51-2.86
		c0.97,0,1.86,0.16,2.68,0.48c0.81,0.37,1.45,1.03,1.91,1.97h0.06l0.39-2.06h5.69L69.44,23.45z"/>
	<path id="XMLID_6_" d="M82.76,16.43c0.04-0.19,0.06-0.37,0.06-0.53c0-0.65-0.18-1.17-0.54-1.57c-0.38-0.39-0.95-0.59-1.71-0.59
		c-1.64,0.02-2.7,0.92-3.17,2.69H82.76z M87.39,21.56c-0.04,0.12-0.09,0.27-0.15,0.45c-0.08,0.21-0.19,0.46-0.34,0.75
		c-0.25,0.55-0.67,1.11-1.25,1.68c-0.57,0.58-1.38,1.08-2.42,1.49c-1.05,0.43-2.41,0.66-4.08,0.68c-2.72-0.04-4.67-0.74-5.86-2.11
		c-1.23-1.31-1.84-2.96-1.82-4.94c0-1.85,0.31-3.41,0.93-4.66c0.59-1.22,1.36-2.21,2.3-2.98c0.95-0.76,1.95-1.31,2.99-1.64
		c1.06-0.3,2.07-0.45,3.04-0.45c1.83,0,3.53,0.53,5.1,1.59c1.58,1.09,2.4,2.89,2.47,5.38c0.02,0.86-0.08,1.79-0.31,2.78H76.98
		c-0.02,0.86,0.16,1.58,0.54,2.15c0.34,0.64,0.97,0.96,1.88,0.96c1.27-0.05,2.05-0.43,2.33-1.14H87.39z"/>
	<path id="XMLID_80_" d="M91.19,10.22h5.69l-0.45,2.03h0.06c1.24-1.57,2.85-2.38,4.82-2.42c1.4,0,2.58,0.32,3.53,0.95
		c0.98,0.68,1.48,1.8,1.5,3.35c-0.02,0.78-0.16,1.8-0.42,3.05l-1.88,9.02h-5.9l1.53-7.33c0.28-1.03,0.44-1.92,0.48-2.66
		c0-0.53-0.16-0.92-0.48-1.16c-0.3-0.25-0.7-0.38-1.19-0.38c-0.91,0.02-1.57,0.32-1.97,0.89c-0.44,0.58-0.74,1.3-0.9,2.17
		l-1.72,8.47h-5.91L91.19,10.22z"/>
</g>
<polygon id="XMLID_79_" points="109.23,10.22 115.12,10.22 111.91,26.2 106,26.2 "/>
<path id="XMLID_78_" d="M125.37,16.29c0.04-0.76-0.1-1.29-0.41-1.58c-0.3-0.31-0.8-0.47-1.5-0.47c-0.61,0.02-1.13,0.21-1.54,0.56
	c-0.44,0.35-0.78,0.8-1.02,1.36c-0.48,1.18-0.7,2.21-0.68,3.09c-0.02,0.78,0.11,1.45,0.39,2c0.27,0.6,0.81,0.91,1.63,0.93
	c0.8-0.02,1.39-0.31,1.79-0.87c0.4-0.51,0.67-1,0.8-1.48l5.66,0.01c-1.03,4.51-3.8,6.76-8.3,6.76c-1.63-0.02-2.96-0.27-3.98-0.75
	c-1.04-0.47-1.83-1.07-2.39-1.8c-0.55-0.76-0.94-1.56-1.16-2.41c-0.22-0.82-0.33-1.6-0.33-2.34c0-2.79,0.82-5.05,2.47-6.79
	c1.61-1.76,3.89-2.66,6.85-2.68c2.19,0,3.98,0.51,5.37,1.53c1.37,1.04,2.04,2.69,2.02,4.93H125.37z"/>
<path id="XMLID_7_" d="M132.85,10.6v0.65c0.07,0.01,0.13,0.01,0.19,0.01c0.16,0,0.28-0.03,0.36-0.08c0.08-0.05,0.11-0.15,0.11-0.28
	c0-0.11-0.04-0.19-0.12-0.24c-0.08-0.05-0.21-0.07-0.38-0.07C132.98,10.59,132.93,10.59,132.85,10.6 M133.67,12.35l-0.53-0.86
	c-0.06,0-0.16,0-0.29-0.01v0.87h-0.27v-1.99c0.01,0,0.08,0,0.21-0.01c0.13-0.01,0.23-0.01,0.29-0.01c0.48,0,0.72,0.19,0.72,0.57
	c0,0.13-0.04,0.24-0.12,0.34c-0.08,0.1-0.17,0.16-0.27,0.19l0.58,0.92H133.67z"/>
</svg>
